<svg xmlns="http://www.w3.org/2000/svg" viewBox="0 0 63.88 63.88"><defs><style>.cls-1{fill:#009fe8;}</style></defs><title>sensor_setting_mode_select</title><g id="图层_2" data-name="图层 2"><g id="图层_1-2" data-name="图层 1"><circle class="cls-1" cx="31.94" cy="31.94" r="31.94"/><path d="M46.59,25.84c-.69.8-1.47,1.54-2.21,2.29Q37,35.6,29.64,43.05c-1.24,1.25-2.07,1.29-3.46.2-2.8-2.21-5.58-4.42-8.39-6.62a3.32,3.32,0,0,1-1.47-2.75,3.93,3.93,0,0,1,4.35-3.58,5.13,5.13,0,0,1,2.49,1c1.08.84,2.19,1.65,3.26,2.51a.8.8,0,0,0,1.28-.06c4.42-4.22,8.86-8.4,13.29-12.61a4,4,0,0,1,2.87-1.3,3.33,3.33,0,0,1,3.33,2A3.53,3.53,0,0,1,46.59,25.84Z"/></g></g></svg>