<svg xmlns="http://www.w3.org/2000/svg" viewBox="0 0 45.43 64"><defs><style>.cls-1{fill:#fff;}</style></defs><title>setting_upgrade</title><g id="图层_2" data-name="图层 2"><g id="图层_1-2" data-name="图层 1"><path class="cls-1" d="M31.09,34.11V24.92c0-1.11,0-1.11,1.14-1.11,2.78,0,5.56,0,8.34,0,1,0,1.63-.73,1.37-1.58a2.16,2.16,0,0,0-.64-.83q-6.51-6.52-13-13L24,4.11c-1-1-1.68-1-2.65,0L4.06,21.7c-.35.36-.62.75-.4,1.25A1.38,1.38,0,0,0,5,23.81h8.63c.94,0,1,0,1,.94,0,5.16,0,10.32,0,15.48,0,.72-.24,1-.94.91a14.93,14.93,0,0,0-1.77,0c-.58,0-.78-.19-.77-.77,0-2.24,0-4.48,0-6.72,0-1.88,0-3.77,0-5.65,0-.56-.18-.74-.74-.73-1.86,0-3.72,0-5.58,0a4.62,4.62,0,0,1-4.46-3,4.42,4.42,0,0,1,1.09-5.07Q10.39,10.3,19.37,1.44a4.66,4.66,0,0,1,6.77,0Q35,10.35,43.89,19.22a4.55,4.55,0,0,1,1.18,5.18,4.6,4.6,0,0,1-4.53,2.88c-1.77,0-3.53,0-5.3,0-.66,0-.84.19-.84.84,0,5.25,0,10.51,0,15.76,0,2.59-1.44,4-4,4H12.16c-1,0-1,0-1-1,0-.61,0-1.22,0-1.83s.19-.65.64-.62H30.15c.93,0,.94,0,.94-.92Z"/><path class="cls-1" d="M23,56.69c-3.46,0-6.92,0-10.38,0a1.92,1.92,0,0,1-1.77-2.86,1.86,1.86,0,0,1,1.79-1H33.21a2,2,0,0,1,2,2.63,1.83,1.83,0,0,1-1.91,1.27C29.89,56.7,26.45,56.69,23,56.69Z"/><path class="cls-1" d="M22.91,60.69h7.35c1.24,0,1.88.54,1.9,1.58S31.49,64,30.27,64c-2,0-4.05,0-6.08,0H16a6.5,6.5,0,0,1-1-.05,1.56,1.56,0,0,1-1.37-1.68,1.54,1.54,0,0,1,1.57-1.57Z"/></g></g></svg>