<svg xmlns="http://www.w3.org/2000/svg" viewBox="0 0 35.99 44"><defs><style>.cls-1{fill:#fff;}</style></defs><title>setting_save</title><g id="图层_2" data-name="图层 2"><g id="图层_1-2" data-name="图层 1"><path class="cls-1" d="M18.74,0a4.4,4.4,0,0,1,3.31,4.31,88.53,88.53,0,0,1,.1,9.91c0,1.09,0,2.18-.1,3.27-.05.41.17.45.5.45,2.46,0,4.93,0,7.39,0a2.12,2.12,0,0,1,1.63.68,1.35,1.35,0,0,1,0,2L28,24.46l-8.28,8.71a2.13,2.13,0,0,1-3.25,0Q10.46,27.1,4.53,21a1.6,1.6,0,0,1-.43-1.79A1.85,1.85,0,0,1,5.84,18c1.2,0,2.4,0,3.6,0s2.65,0,4,0c.41,0,.54-.12.53-.53-.14-3-.2-6.05-.18-9.07,0-1.43,0-2.87.19-4.3a4.38,4.38,0,0,1,3.28-4Z"/><path class="cls-1" d="M18,44H2.23A2,2,0,0,1,0,41.68,3.89,3.89,0,0,1,1.9,38.52a4,4,0,0,1,2.22-.64q13.89,0,27.78,0A4,4,0,0,1,36,42a1.88,1.88,0,0,1-1.68,2,4.59,4.59,0,0,1-.74,0Z"/></g></g></svg>