<svg xmlns="http://www.w3.org/2000/svg" viewBox="0 0 43.78 44.35"><defs><style>.cls-1{fill:#fff;}</style></defs><title>vac_depart_2</title><g id="图层_2" data-name="图层 2"><g id="图层_1-2" data-name="图层 1"><path class="cls-1" d="M0,22.22V43.36c0,.69.33,1,1,1h18.9c.89,0,1.11-.23,1.12-1.12,0-1.24,0-2.49,0-3.73,0-.77-.24-1-1-1H6.54c-.64,0-.64,0-.64-.67V6.41c0-.55,0-.56.56-.56H20c.82,0,1-.21,1-1C21,3.54,21,2.26,21,1c0-.71-.28-1-1-1H1C.3,0,0,.33,0,1.13V22.22Z"/><path class="cls-1" d="M31.53,18.89H10.85c-.81,0-1.11.3-1.11,1.12V24.4c0,.75.31,1.06,1.07,1.06H31.42c0,.22-.17.3-.28.4-1.49,1.51-3,3-4.5,4.51-.62.62-.62,1,0,1.64l3.08,3.08a.94.94,0,0,0,1.55,0l12-12a1.08,1.08,0,0,0,0-1.81L31.35,9.33c-.64-.65-1.05-.65-1.71,0q-1.53,1.52-3,3a.93.93,0,0,0,0,1.55l4.54,4.53Z"/></g></g></svg>