<svg xmlns="http://www.w3.org/2000/svg" viewBox="0 0 50.41 50.44"><defs><style>.cls-1{fill:#fff;}</style></defs><title>vac_set</title><g id="图层_2" data-name="图层 2"><g id="图层_1-2" data-name="图层 1"><path class="cls-1" d="M33.4,23.2A5.6,5.6,0,0,0,29,21.49,20.33,20.33,0,0,0,18.4,24a5.66,5.66,0,0,0-3.27,3.6,3.68,3.68,0,0,0-2-1.54c-3-.93-5.82-.34-8.6.81A8.26,8.26,0,0,0,2.4,28.09,4.47,4.47,0,0,0,.6,30.85a6.79,6.79,0,0,1-.55-2.79A22,22,0,0,1,6,11.34,24.9,24.9,0,0,1,16.43,4.5c.57-.2.76-.47.57-1a9.4,9.4,0,0,1-.26-1.17A1.93,1.93,0,0,1,18.09.07a2,2,0,0,1,2.37,1.21,8.25,8.25,0,0,1,.33,1.3c.11.53.32.71.92.64A25.12,25.12,0,0,1,34,4.55,22,22,0,0,1,47.64,18.43a1.8,1.8,0,0,1,.16,1c-1.86-1.85-4.16-1.79-6.45-1.53A12,12,0,0,0,35,20.37,3.89,3.89,0,0,0,33.4,23.2ZM20,3.72A4.76,4.76,0,0,0,16,6.23c-1.74,2.78-2.18,5.91-2.3,9.1A39.44,39.44,0,0,0,14,22.2c0,.19,0,.44.18.55s.34-.15.49-.25c.46-.31.88-.67,1.35-.94a22,22,0,0,1,15.09-3c.59.1.63-.06.45-.56-.5-1.36-1-2.71-1.61-4a25,25,0,0,0-5.75-8.4A6.55,6.55,0,0,0,20,3.72Z"/><path class="cls-1" d="M30,50.44H10.67c-1.13,0-1.27-.21-.86-1.27a4.66,4.66,0,0,1,1.49-1.94,18,18,0,0,1,7.84-3.15,45.59,45.59,0,0,1,6.38-.8c1-.06,1-.1.76-1Q24.35,34.16,22.4,26c-.25-1.05-.26-1.06.77-1.35.64-.18,1.32-.26,2-.45s.89.11,1,.7c.43,1.9.89,3.79,1.34,5.68,1,4,1.92,8,2.85,11.94.15.61.53.61,1,.61A45.74,45.74,0,0,1,42,44.38a16.6,16.6,0,0,1,6.43,2.72,4.6,4.6,0,0,1,1.84,2.39c.23.79.12.95-.7.95H30Z"/></g></g></svg>