<svg xmlns="http://www.w3.org/2000/svg" viewBox="0 0 43.78 44.35"><defs><style>.cls-1{fill:#fff;}</style></defs><title>vac_return</title><g id="图层_2" data-name="图层 2"><g id="图层_1-2" data-name="图层 1"><path class="cls-1" d="M43.78,22.22V43c0,.12,0,.23,0,.35,0,.69-.32,1-1,1H23.86c-.89,0-1.12-.23-1.12-1.12V39.5c0-.77.24-1,1-1h13.5c.64,0,.64,0,.64-.67V6.41c0-.55,0-.56-.56-.56H23.78c-.82,0-1-.21-1-1V1c0-.71.28-1,1-1h19c.72,0,1,.33,1,1.13,0,1.65,0,3.31,0,5Z"/><path class="cls-1" d="M21.79,18.89H1.11C.3,18.89,0,19.19,0,20V24.4c0,.75.31,1.06,1.08,1.06H21.69c0,.22-.18.3-.28.4-1.5,1.51-3,3-4.51,4.51-.61.62-.61,1,0,1.64L20,35.09a.94.94,0,0,0,1.55,0l12-12a1.08,1.08,0,0,0,0-1.81L21.62,9.33c-.65-.65-1.06-.65-1.72,0l-3,3a.93.93,0,0,0,0,1.55l4.53,4.53Z"/></g></g></svg>