<svg xmlns="http://www.w3.org/2000/svg" viewBox="0 0 82.44 99.69"><defs><style>.cls-1{fill:#fff;}</style></defs><title>schedule_copy_no_select</title><g id="图层_2" data-name="图层 2"><g id="图层_1-2" data-name="图层 1"><path class="cls-1" d="M82.41,10.92C82.37,3.74,78.68,0,71.49,0H11.27C3.71,0,0,3.69,0,11.24,0,24.13,0,37,0,49.91,0,63.1,0,76.28,0,89.47c0,6.23,4,10.18,10.16,10.19q31.16.06,62.29,0c5.86,0,9.8-4,9.9-9.82q.1-6.63,0-13.28ZM68.62,90.35q-27.47,0-54.91,0c-3.83,0-4.53-.7-4.53-4.44q0-36,0-72c0-3.82.67-4.54,4.43-4.54q27.75,0,55.5,0c3.43,0,4.11.71,4.13,4.21,0,5.71,0,11.42,0,17.12l-.07,55C73.35,89.69,72.6,90.35,68.62,90.35Z"/></g></g></svg>