<svg xmlns="http://www.w3.org/2000/svg" viewBox="0 0 83.41 71.14"><defs><style>.cls-1{fill:#fff;}</style></defs><title>schedule_mode_home</title><g id="图层_2" data-name="图层 2"><g id="图层_1-2" data-name="图层 1"><path class="cls-1" d="M12.35,54.36V38.6c0-.91,0-.91-.92-.91H.67c-.23,0-.57.12-.66-.18S.24,37.13.4,37L12.77,25.84,26.84,13.21,37.36,3.7c1.28-1.15,2.56-2.27,3.82-3.43a.65.65,0,0,1,1,0Q46.49,4.13,50.77,8L65,20.79c3.06,2.75,6.1,5.52,9.15,8.27l8.72,7.83a.1.1,0,0,1,0,0c.16.2.56.31.42.62s-.46.13-.7.13H72.06c-1,0-1,0-1,1V70c0,1.15,0,1.15-1.12,1.15H51c-1,0-1,0-1-1q0-11.51,0-23c0-1,0-1-1-1H34.45c-1,0-1,0-1,1V70c0,1.19,0,1.19-1.16,1.19H13.4c-1.05,0-1.05,0-1.05-1.08Z"/></g></g></svg>