<svg xmlns="http://www.w3.org/2000/svg" viewBox="0 0 79.21 79.21"><defs><style>.cls-1{fill:#fff;}</style></defs><title>schedule_mode_sleep</title><g id="图层_2" data-name="图层 2"><g id="图层_1-2" data-name="图层 1"><path class="cls-1" d="M0,38.63C.27,28.24,3.62,19.08,10.68,11.32A40,40,0,0,1,27.5.29c.37-.13.81-.48,1.16-.16s0,.78-.07,1.16A38.88,38.88,0,0,0,31.15,29.2C37.45,42,47.81,49.45,61.9,51.66a38.65,38.65,0,0,0,16.08-1c.35-.09.75-.35,1.06,0s.06.79-.07,1.16A40.6,40.6,0,0,1,49.56,78.2a40.35,40.35,0,0,1-25.45-2.49A38.93,38.93,0,0,1,12,67.43,40,40,0,0,1,.51,44.69,38.42,38.42,0,0,1,0,38.63Z"/></g></g></svg>