<svg xmlns="http://www.w3.org/2000/svg" viewBox="0 0 74.34 79.28"><defs><style>.cls-1{fill:#fff;}</style></defs><title>schedule_mode_away</title><g id="图层_2" data-name="图层 2"><g id="图层_1-2" data-name="图层 1"><path class="cls-1" d="M74.32,21.28A21.62,21.62,0,0,1,55.77,42.83a21.39,21.39,0,0,1-11.91-1.78,1.1,1.1,0,0,0-1.46.24q-6.13,6.2-12.33,12.34c-.53.53-.49.83,0,1.33,2.25,2.21,4.47,4.46,6.7,6.69,1.72,1.72,1.75,3.65.05,5.37q-5.49,5.52-11,11a3.48,3.48,0,0,1-5.38,0c-2.26-2.25-4.52-4.49-6.75-6.77-.47-.47-.77-.49-1.21,0a14.66,14.66,0,0,1-1.65,1.6,6.64,6.64,0,0,1-9.1-9.62c.25-.28.53-.55.8-.82Q17.69,47.22,32.85,32.09a1.34,1.34,0,0,0,.36-1.8A21.51,21.51,0,1,1,74.09,18.2,13.77,13.77,0,0,1,74.32,21.28ZM52.78,13.41a8,8,0,0,0-8.06,8.18,8.11,8.11,0,1,0,16.22-.17A8,8,0,0,0,52.78,13.41Z"/></g></g></svg>