<svg xmlns="http://www.w3.org/2000/svg" viewBox="0 0 58.98 59.32"><defs><style>.cls-1{fill:#fff;}</style></defs><title>schedule_time_icon</title><g id="图层_2" data-name="图层 2"><g id="图层_1-2" data-name="图层 1"><path class="cls-1" d="M40.94,2.42A29.44,29.44,0,1,0,26.2,58.78c.46,0,.91,0,1.15.54h4.18c.25-.47.7-.49,1.15-.54C48.41,57.16,60.37,42.9,58.85,27.24,57.72,15.5,51.66,7.15,40.94,2.42ZM29.53,50.26A20.72,20.72,0,1,1,50.27,29.5,20.74,20.74,0,0,1,29.53,50.26Z"/><path class="cls-1" d="M32.67,28.5c-2-.05-1.94-.05-1.85-2a35.16,35.16,0,0,0-.1-8.33,4.16,4.16,0,0,0-4.57-3.42,4.32,4.32,0,0,0-3.94,4C22.07,23.36,22,28,22,32.61c0,3,1.81,4.62,4.85,4.65,3.39,0,6.77,0,10.15,0v.21c1.64,0,3.29.09,4.92,0a4.42,4.42,0,0,0,4.25-4.54,4.34,4.34,0,0,0-4.54-4.18C38.64,28.65,35.66,28.56,32.67,28.5Z"/></g></g></svg>