<svg xmlns="http://www.w3.org/2000/svg" viewBox="0 0 92.25 92.26"><defs><style>.cls-1{fill:#fff;}</style></defs><title>schedule_mode_wake</title><g id="图层_2" data-name="图层 2"><g id="图层_1-2" data-name="图层 1"><path class="cls-1" d="M46.27,22.81A23.94,23.94,0,1,1,22.22,46.64,23.82,23.82,0,0,1,46.27,22.81Z"/><path class="cls-1" d="M46.49,0A1.23,1.23,0,0,1,47,.83q2.27,6.74,4.5,13.49c.37,1.12.35,1.15-.84,1.16h-9c-1.16,0-1.19,0-.79-1.08Q43.51,7.55,46.18.69C46.26.48,46.36.28,46.49,0Z"/><path class="cls-1" d="M46.5,92.26l-1.59-4.07c-1.36-3.5-2.7-7-4.09-10.49-.29-.73-.26-1.06.66-1,3.13,0,6.26,0,9.39,0,.6,0,1,.08.73.83C50,82.23,48.43,87,46.84,91.72A3.65,3.65,0,0,1,46.5,92.26Z"/><path class="cls-1" d="M0,46.4a1.27,1.27,0,0,1,.85-.48c4.49-1.51,9-3,13.49-4.5,1.07-.35,1.12-.32,1.12.79v9.28c0,.61-.08,1-.83.67C9.88,50.29,5.13,48.45.38,46.6.26,46.55.15,46.48,0,46.4Z"/><path class="cls-1" d="M92.25,46.4,88.17,48,77.78,52c-1.08.42-1.13.38-1.13-.72,0-3.09,0-6.19,0-9.28,0-.72.19-.95.92-.71,4.67,1.58,9.36,3.13,14,4.7A4.63,4.63,0,0,1,92.25,46.4Z"/><path class="cls-1" d="M13.73,78.82a1.87,1.87,0,0,1,.32-1l6.27-12.54c.53-1,.53-1,1.39-.2l6.56,6.57c.37.37.67.66-.07,1L14.27,78.69A3.3,3.3,0,0,1,13.73,78.82Z"/><path class="cls-1" d="M78.93,13.68l-3,6.87c-1.1,2.5-2.23,5-3.3,7.51-.3.71-.53.77-1.07.22-2.24-2.28-4.51-4.52-6.77-6.78-.32-.32-.67-.62,0-.95L78.31,13.8A4,4,0,0,1,78.93,13.68Z"/><path class="cls-1" d="M14,13.23c.36-.11.62.14.9.28q6.27,3.12,12.54,6.27c1.06.52,1.07.57.23,1.41-2.16,2.17-4.34,4.32-6.49,6.5-.49.5-.76.6-1.09-.16C18,23,16,18.38,14,13.8,13.92,13.63,13.79,13.44,14,13.23Z"/><path class="cls-1" d="M78.86,78.24a8.73,8.73,0,0,1-2.16-.84q-5.92-2.58-11.84-5.2c-1.12-.49-1.12-.5-.29-1.34,2.17-2.17,4.34-4.32,6.49-6.5.45-.45.77-.68,1.15.09q3.27,6.6,6.58,13.16A.7.7,0,0,1,78.86,78.24Z"/></g></g></svg>