<svg xmlns="http://www.w3.org/2000/svg" viewBox="0 0 45.88 55.61"><defs><style>.cls-1{fill:#fff;}</style></defs><title>schedule_copy</title><g id="图层_2" data-name="图层 2"><g id="图层_1-2" data-name="图层 1"><path class="cls-1" d="M6.22,55.61a7.85,7.85,0,0,1-4.17-2.27A7.06,7.06,0,0,1,0,48.4Q0,31.8,0,15.19A7.37,7.37,0,0,1,7.3,7.93H25.43a5.49,5.49,0,0,1,3.92,1.6q4.2,4.13,8.32,8.33a5.93,5.93,0,0,1,1.66,4.3q0,10.41,0,20.83c0,.79.07.84.77.46A3.49,3.49,0,0,0,42,40.26c0-2.28,0-4.56,0-6.84V7.64a3.66,3.66,0,0,0-2.81-3.71,3.53,3.53,0,0,0-.86-.08H12.64A3.58,3.58,0,0,0,9.82,5.13a.82.82,0,0,1-.69.33H6c-.54,0-.59-.1-.41-.63A7.42,7.42,0,0,1,12.41,0H38.56a7.41,7.41,0,0,1,7.31,7.25q0,16.58,0,33.16A7.44,7.44,0,0,1,40,47.57a.69.69,0,0,0-.65.75,7.46,7.46,0,0,1-6.13,7.23l-.15.06ZM3.85,31.79c0,5.37,0,10.74,0,16.11a3.82,3.82,0,0,0,3.91,3.92q11.88-.09,23.76,0a3.8,3.8,0,0,0,3.93-4c-.09-2.27,0-4.55,0-6.83V22.16c0-.8,0-.83-.76-.83-1.23,0-2.46,0-3.69,0a5.44,5.44,0,0,1-5.35-4.57,27.76,27.76,0,0,1-.08-4.28c0-.54-.15-.71-.7-.71-5.79,0-11.58,0-17.37,0a3.56,3.56,0,0,0-.8.08,3.63,3.63,0,0,0-2.82,3.7Z"/><path class="cls-1" d="M19.63,31.08H29a4.35,4.35,0,0,1,1,.09,2.26,2.26,0,0,1,1.73,2.22A2.22,2.22,0,0,1,30,35.54a4.68,4.68,0,0,1-.91.09H10.22A2.43,2.43,0,0,1,7.61,34a2.23,2.23,0,0,1,1.66-2.78,4,4,0,0,1,1-.09Z"/><path class="cls-1" d="M19.63,40.6h9.81a2.24,2.24,0,0,1,2.2,3,2.33,2.33,0,0,1-2.27,1.53H10.06a2.57,2.57,0,0,1-1.67-.51,2.18,2.18,0,0,1-.76-2.43A2.26,2.26,0,0,1,9.75,40.6Z"/><path class="cls-1" d="M15.51,26.11H10a2.26,2.26,0,1,1,0-4.5H21a2.26,2.26,0,1,1,0,4.5Z"/></g></g></svg>