<svg xmlns="http://www.w3.org/2000/svg" viewBox="0 0 58.81 58.84"><defs><style>.cls-1{fill:#f6ac19;}</style></defs><title>device_fan</title><g id="图层_2" data-name="图层 2"><g id="图层_1-2" data-name="图层 1"><path class="cls-1" d="M29.4,18.6h.1a13.88,13.88,0,0,1,4-6,9.51,9.51,0,0,0,3.42-4.87,5.43,5.43,0,0,0,.2-1,4.93,4.93,0,0,0,0-.66A5,5,0,0,0,37,4.57,4.59,4.59,0,0,0,36.37,3C34.53.23,29.91,0,28.52,0,28.18,0,28,0,28,0,23.74,0,20.37,1.1,17.88,3.23a13.17,13.17,0,0,0-1.35,1.34,10.41,10.41,0,0,0-1.08,1.51,12.32,12.32,0,0,0-1.06,2.13,11,11,0,0,0-.69,2.56c-.52,6.38,4,10.37,7,12.31A10.77,10.77,0,0,1,29.4,18.6Z"/><path class="cls-1" d="M18.59,29.42s0-.07,0-.11a13.79,13.79,0,0,1-6-4,8.93,8.93,0,0,0-5.84-3.62c-.31,0-.6-.05-.87-.05a4.82,4.82,0,0,0-3.72,1.51C-.28,25.76,0,30.8,0,30.86c0,13,10.3,14.21,10.74,14.26s.68,0,1,0c5.78,0,9.46-4.17,11.29-7A10.78,10.78,0,0,1,18.59,29.42Z"/><path class="cls-1" d="M29.4,40.24h-.09a14,14,0,0,1-4,6,9.51,9.51,0,0,0-3.43,4.86,5.87,5.87,0,0,0-.19,1,6.42,6.42,0,0,0-.05.74,5.54,5.54,0,0,0,.15,1.5,4.7,4.7,0,0,0,.59,1.44c1.8,2.83,6.49,3.06,7.87,3.06h.58c4.22,0,7.6-1.09,10.09-3.22a11.71,11.71,0,0,0,1.27-1.27,13,13,0,0,0,2.21-3.71,13.56,13.56,0,0,0,.7-2.56c.52-6.39-4-10.38-7-12.31A10.79,10.79,0,0,1,29.4,40.24Z"/><path class="cls-1" d="M58.8,28C58.8,15,48.48,13.77,48,13.73s-.68-.05-1-.05c-5.8,0-9.46,4.17-11.29,7a10.79,10.79,0,0,1,4.48,8.73s0,.07,0,.11a14,14,0,0,1,6,4,9,9,0,0,0,5.84,3.63c.32,0,.6,0,.87,0a4.85,4.85,0,0,0,3.73-1.51C59.1,33.08,58.8,28,58.8,28Z"/><circle class="cls-1" cx="29.4" cy="29.03" r="6.11"/></g></g></svg>