<svg xmlns="http://www.w3.org/2000/svg" viewBox="0 0 192.34 192.56"><defs><style>.cls-1{fill:#009fe8;}</style></defs><title>fail_icon</title><g id="图层_2" data-name="图层 2"><g id="图层_1-2" data-name="图层 1"><path class="cls-1" d="M97.84,192.56c-.61,0-1.22,0-1.83,0-24.89.4-49.42-9.63-67.59-27.56A95.57,95.57,0,0,1,0,95.88C.25,42.09,42.6,0,96.44,0h.15c52.65.07,95.61,43.44,95.75,96.67a95.24,95.24,0,0,1-28.92,68.6C145.44,182.91,122.22,192.56,97.84,192.56ZM96,183h.1c22.55.47,44-8.25,60.61-24.54a85.71,85.71,0,0,0,26.05-61.76c-.12-48-38.8-87.07-86.2-87.14h-.14C47.93,9.55,9.78,47.47,9.55,95.93a86.1,86.1,0,0,0,25.58,62.25A85.24,85.24,0,0,0,94.52,183H96Z"/><path class="cls-1" d="M129.06,141c-3,0-5.35-1.66-7.85-2.91a50.92,50.92,0,0,0-40.73-2.61c-3.39,1.17-6.57,3-9.86,4.46-4.57,2.05-8.71.86-10.78-3.07s-.58-8.26,3.7-10.62c22.93-12.63,45.88-12.44,68.79.08A7.71,7.71,0,0,1,129.06,141Z"/><path class="cls-1" d="M86.59,59.33c.08,3.57-2.33,5.74-4.5,8-3.89,4.11-3.31,3.3-.13,6.88a44.68,44.68,0,0,1,3.3,3.85A7.6,7.6,0,0,1,74,88.12c-2-1.68-3.31-4.92-5.65-5.05s-3.6,3.33-5.58,5c-3,2.51-7.54,2.61-10.25.12a7.59,7.59,0,0,1-.88-10.67,44,44,0,0,1,4.62-5c1.14-1.11,1.14-2,0-3.12-1.51-1.52-2.92-3.14-4.32-4.76-3-3.57-2.9-8,.32-10.93S59.57,51,62.92,54c1.81,1.65,3.18,4.85,5.37,4.69,1.8-.13,3.37-3,5.08-4.63,2.53-2.38,5.43-3.24,8.7-1.72A7.34,7.34,0,0,1,86.59,59.33Z"/><path class="cls-1" d="M135.9,90c-4.56.15-6.51-2.09-8.55-4.24-3.29-3.47-3.3-3.46-6.62,0C116,90.54,111.8,91.32,108.15,88s-3-7.75,1.33-12.75c4-4.56,4-4.62-.36-9.06-2.38-2.41-3.83-5-3.19-8.47a7.49,7.49,0,0,1,11.37-4.87,14.29,14.29,0,0,1,2.82,2.4c4.13,4.32,4.14,4.36,8.2-.18,2.25-2.52,4.84-4.1,8.35-3.18A7.61,7.61,0,0,1,142.42,58c.73,3.14-.8,5.44-2.79,7.58-4.81,5.22-4.83,5.25,0,10.56,2.53,2.8,3.9,5.74,2.13,9.52A7,7,0,0,1,135.9,90Z"/></g></g></svg>