<svg id="图层_1" data-name="图层 1" xmlns="http://www.w3.org/2000/svg" viewBox="0 0 75.76 21.37"><defs><style>.cls-1{fill:#eca724;}.cls-2{fill:#5a5a5a;}</style></defs><title>modifyPsw</title><path class="cls-1" d="M30,64.63a2.82,2.82,0,0,1-2.8-2,2.88,2.88,0,0,1,1.2-3.17c.63-.42,1.3-.78,1.95-1.16s.54-.54,0-.84a15.41,15.41,0,0,1-2-1.16,2.77,2.77,0,0,1-.88-3.69,2.85,2.85,0,0,1,3.72-1.16c.65.31,1.26.69,1.88,1.05s.83.28.81-.44,0-1.28,0-1.92a2.87,2.87,0,1,1,5.73,0c.06.84-.44,2,.26,2.43s1.41-.65,2.14-1a2.89,2.89,0,0,1,3.95,1,2.8,2.8,0,0,1-1.17,4c-2.3,1.39-2.3,1.39-.05,2.74a2.84,2.84,0,1,1-2.8,4.93C39.64,63,39.64,63,39.58,65.5a2.91,2.91,0,0,1-2.86,3.14,3,3,0,0,1-2.88-3c-.06-.8.42-1.92-.28-2.32s-1.34.64-2.06.95A3.11,3.11,0,0,1,30,64.63Z" transform="translate(-27.04 -47.28)"/><path class="cls-2" d="M59.16,58c-.93-.58-1.74-1-2.52-1.56a2.85,2.85,0,0,1-1-3.86,2.89,2.89,0,0,1,3.77-1c.8.38,1.61,1.45,2.33,1.05s.15-1.6.23-2.45a2.81,2.81,0,0,1,2.91-2.83,2.76,2.76,0,0,1,2.82,2.9c0,.27,0,.53,0,.8,0,2,0,2.07,1.82,1,1.29-.77,2.54-1.22,3.87-.17a2.81,2.81,0,0,1-.3,4.68c-.57.36-1.16.7-1.76,1s-.65.57,0,.91,1.2.64,1.77,1a2.79,2.79,0,0,1,1,3.84,2.82,2.82,0,0,1-3.85,1.05c-.6-.31-1.19-.65-1.76-1s-.81-.31-.79.41,0,1.28,0,1.92a2.92,2.92,0,0,1-2.63,3A3,3,0,0,1,62,65.81c-.07-.67,0-1.35,0-2s-.3-.73-.8-.45-1,.64-1.56.93a2.85,2.85,0,0,1-4-1,2.82,2.82,0,0,1,1.08-3.91C57.5,58.9,58.26,58.49,59.16,58Z" transform="translate(-27.04 -47.28)"/><path class="cls-2" d="M87.39,58c-.93-.58-1.74-1-2.52-1.56a2.85,2.85,0,0,1-1-3.86,2.89,2.89,0,0,1,3.77-1c.8.38,1.61,1.45,2.34,1.05s.14-1.6.22-2.45a2.81,2.81,0,0,1,2.91-2.83A2.76,2.76,0,0,1,96,50.18c0,.27,0,.53,0,.8,0,2,0,2.07,1.83,1,1.28-.77,2.53-1.22,3.86-.17a2.81,2.81,0,0,1-.3,4.68c-.57.36-1.16.7-1.76,1s-.65.57,0,.91,1.2.64,1.77,1a2.79,2.79,0,0,1,1,3.84,2.82,2.82,0,0,1-3.85,1.05c-.6-.31-1.19-.65-1.76-1S96,63,96,63.7s0,1.28,0,1.92a2.92,2.92,0,0,1-2.63,3,3,3,0,0,1-3.08-2.83c-.06-.67,0-1.35,0-2s-.3-.73-.8-.45-1,.64-1.55.93a2.87,2.87,0,0,1-4-1A2.83,2.83,0,0,1,85,59.37C85.73,58.9,86.49,58.49,87.39,58Z" transform="translate(-27.04 -47.28)"/></svg>