<svg xmlns="http://www.w3.org/2000/svg" viewBox="0 0 194.59 194.57"><defs><style>.cls-1{fill:#009fe8;}</style></defs><title>success_icon</title><g id="图层_2" data-name="图层 2"><g id="图层_1-2" data-name="图层 1"><path class="cls-1" d="M194.59,119.68a27.17,27.17,0,0,1-6.37,5.34,4.17,4.17,0,0,0-2,4c.1,1.32.15,2.65.28,4a7.82,7.82,0,0,1-.2,3.37,3.58,3.58,0,0,1-6.07,1.45,34.52,34.52,0,0,1-3.37-4.57,5.11,5.11,0,0,0-4.58-2.54c-1.83,0-3.66,0-5.49.12-2.13.1-3.72-.73-4.34-2.35s0-3.5,1.78-4.77c1.29-.92,2.56-1.86,3.89-2.72a5.11,5.11,0,0,0,2.5-4.78,42.71,42.71,0,0,0-.28-4.92,4,4,0,0,1,2.53-4.57c1.67-.61,3.22,0,4.54,1.82,1,1.38,2,2.79,3,4.18a4.79,4.79,0,0,0,4.76,2.12c1.25-.15,2.52-.2,3.77-.36,2.3-.3,4.27.19,5.7,2.16Z"/><path class="cls-1" d="M79.46,0c2,1.29,2.5,3,2.06,5.39-1.37,7.41-1.29,7.43,5.09,12.78,1.76,1.48,2.11,3.26,1,5a3.14,3.14,0,0,1-3,1.58c-1.88-.19-3.77-.39-5.65-.65a5.27,5.27,0,0,0-5.36,2c-1.11,1.45-2.38,2.79-3.61,4.14a3.48,3.48,0,0,1-4.47.89,3.52,3.52,0,0,1-1.87-4,52.78,52.78,0,0,0,.72-6,5.13,5.13,0,0,0-2-4.46c-1.33-1.07-2.64-2.18-4-3.18a3.53,3.53,0,0,1-1.41-4.34,3.54,3.54,0,0,1,3.7-2.4,25.39,25.39,0,0,1,5.08.62,5.84,5.84,0,0,0,6.1-2.09C73.31,3.44,74.56,1.23,76.8,0Z"/><path class="cls-1" d="M47.94,85c2-.14,3.87,1.15,5.53,2.8l46.59,46.6c2.11,2.1,4.22,4.19,6.31,6.31,5,5.09,3.95,10.73-2.64,13.54q-27.24,11.64-54.51,23.19c-12.69,5.4-25.4,10.76-38.09,16.18-3.26,1.39-6.25,1.43-8.92-1.22S-.43,186.6,1,183.31q9.81-23.06,19.59-46.13,9.94-23.42,19.85-46.85C41.75,87.13,43.78,85,47.94,85Zm2.5,20.81c-.13.68-.23,1-.26,1.39-.61,7.81-1.24,15.63-1.81,23.44-.75,10.09-1.44,20.18-2.19,30.26-.1,1.34.2,1.82,1.55,1.22,3.13-1.38,6.26-2.75,9.42-4a2.16,2.16,0,0,0,1.43-2.17c.44-6.25,1-12.48,1.4-18.72s.84-12.49,1.23-18.74a3,3,0,0,0-.54-2.52C57.36,112.65,54,109.37,50.44,105.83Zm19.68,45.45c-.17,1,.27,1.29,1.17.91l16.62-7c.81-.34.88-.82.28-1.43L72.9,128.21c-.25-.26-.53-.63-1-.44s-.37.63-.39,1c-.09,1.52-.15,3-.25,4.55Q70.72,142.31,70.12,151.28ZM36.78,137c-.21.13-.37.17-.41.26q-7.27,17.2-14.53,34.41c-.15.38-.52.86-.08,1.22s.85,0,1.24-.18c3.44-1.44,6.86-2.92,10.31-4.35a2,2,0,0,0,1.33-2.05c.11-2.21.31-4.41.47-6.61C35.66,152.16,36.22,144.62,36.78,137Z"/><path class="cls-1" d="M139.56,60.78a4.56,4.56,0,0,1-1.5,3.57q-18.53,18.9-37,37.85c-1.9,1.94-3.71,4-5.64,5.89a5.75,5.75,0,0,1-8.54-7.66,12,12,0,0,1,1-1.12q11-11.25,22-22.51,9.85-10.12,19.64-20.33c1.74-1.81,3.67-2.62,6.13-1.59A5.89,5.89,0,0,1,139.56,60.78Z"/><path class="cls-1" d="M93.08,59a52.45,52.45,0,0,1-7.32,26.39c-1.75,3.09-3.7,6.05-5.72,9a5.54,5.54,0,1,1-9.17-6.2,86.4,86.4,0,0,0,8-13.77c4.32-10,3.57-20-.07-30-.37-1-.77-2-1.1-3a5.34,5.34,0,0,1,2.79-6.68,5.77,5.77,0,0,1,7.08,2,6.55,6.55,0,0,1,.56,1A62.12,62.12,0,0,1,93.08,59Z"/><path class="cls-1" d="M161.18,112.48c-.05,4.46-3.69,6.93-7.59,5.44a61.86,61.86,0,0,0-12.37-3.57,37,37,0,0,0-24.16,4.49c-3.33,1.83-6.46,4-9.66,6-3.69,2.36-7.83.71-8.75-3.41a5,5,0,0,1,2.08-5.35c10.15-7.48,21.07-13.22,34-13.42A55,55,0,0,1,158.29,108,5,5,0,0,1,161.18,112.48Z"/><path class="cls-1" d="M171.44,40a3.81,3.81,0,0,1-2.9,3.76c-1.75.57-3.52,1.06-5.28,1.57a4.77,4.77,0,0,0-3.46,3.44c-.54,1.82-1.1,3.63-1.7,5.43A3.53,3.53,0,0,1,154.65,57a3.57,3.57,0,0,1-3.58-2.84c-.54-1.69-1-3.4-1.48-5.1a5.22,5.22,0,0,0-4.14-4A49.36,49.36,0,0,1,140,43.41,3.56,3.56,0,0,1,137.39,40c0-1.65,1.21-2.59,2.67-3.11,1.67-.59,3.36-1.15,5.06-1.6a5.47,5.47,0,0,0,4.23-4.15c.43-1.65,1-3.28,1.41-4.93a3.54,3.54,0,0,1,3.47-3A3.74,3.74,0,0,1,158,26a44.57,44.57,0,0,1,1.52,4.89,5.49,5.49,0,0,0,4.6,4.44,41.83,41.83,0,0,1,5.08,1.55A3.22,3.22,0,0,1,171.44,40Z"/><path class="cls-1" d="M157.41,81.11a3.74,3.74,0,0,1-2.18,3.71c-6.23,3-12.6,5.61-19.06,8a4.21,4.21,0,0,1-5.09-2.22A4.54,4.54,0,0,1,133,84.68c2.46-1.27,5.06-2.29,7.63-3.37,3.43-1.45,6.86-3,10.35-4.24S157.41,77.77,157.41,81.11Z"/><path class="cls-1" d="M106.71,64.63a4.23,4.23,0,0,1-4.11-5.74c2.31-6.51,5.17-12.79,8-19.1a4,4,0,0,1,5.38-1.8,4.33,4.33,0,0,1,2.42,5.67C117,47.27,115.48,50.83,114,54.4c-1.06,2.57-2.17,5.12-3.27,7.69A3.8,3.8,0,0,1,106.71,64.63Z"/><path class="cls-1" d="M137.27,139.21c0,3.26-2.24,5.22-5.33,4.26-4.45-1.38-8.83-3.05-13.18-4.76a4.18,4.18,0,0,1-2.35-5.06,4.25,4.25,0,0,1,4.42-3.38,10.69,10.69,0,0,1,3.3.79c3.28,1.14,6.57,2.26,9.83,3.44A4.35,4.35,0,0,1,137.27,139.21Z"/><path class="cls-1" d="M64,73.71a4.39,4.39,0,0,1-8.42,1.8A128.63,128.63,0,0,1,50.8,62.32a4.45,4.45,0,0,1,2.46-4.87,4.51,4.51,0,0,1,5.46,1.34C59.86,60.16,64,71.84,64,73.71Z"/><path class="cls-1" d="M44.28,45.76a4.65,4.65,0,0,1,4.37-4.63A4.81,4.81,0,0,1,53.25,46a4.67,4.67,0,0,1-4.49,4.5A4.62,4.62,0,0,1,44.28,45.76Z"/><path class="cls-1" d="M149.61,150.14a4.82,4.82,0,0,1-4.74-4.7,4.65,4.65,0,0,1,4.29-4.49,5,5,0,0,1,4.8,4.9A4.24,4.24,0,0,1,149.61,150.14Z"/><path class="cls-1" d="M163,74.7a4.23,4.23,0,0,1,4.42-4.41,4.52,4.52,0,1,1-.15,9A4.31,4.31,0,0,1,163,74.7Z"/><path class="cls-1" d="M120.59,23.13a4.36,4.36,0,0,1,4.47,4.41,4.83,4.83,0,0,1-4.77,4.69,4.34,4.34,0,0,1-4.25-4A4.75,4.75,0,0,1,120.59,23.13Z"/></g></g></svg>