<svg xmlns="http://www.w3.org/2000/svg" viewBox="0 0 47.35 56.83"><defs><style>.cls-1{fill:#f6ac19;}</style></defs><title>资源 6</title><g id="图层_2" data-name="图层 2"><g id="图层_1-2" data-name="图层 1"><path class="cls-1" d="M47.32,29.82a5.46,5.46,0,0,0-.07-1.14,4.84,4.84,0,0,0-4.86-3.9H23.69q-9.37,0-18.76,0A4.78,4.78,0,0,0,0,29.7V52a4.65,4.65,0,0,0,1.89,3.83,5.16,5.16,0,0,0,3.31,1h37a5,5,0,0,0,5.11-5.08C47.27,44.44,47.32,37.13,47.32,29.82ZM37.7,35.17c-.64.74-1.35,1.42-2,2.12L22,51.09c-1.14,1.16-1.92,1.2-3.2.19-2.59-2-5.17-4.09-7.77-6.12a3.09,3.09,0,0,1-1.36-2.55,3.64,3.64,0,0,1,4-3.31,4.72,4.72,0,0,1,2.3.94c1,.78,2,1.52,3,2.32.46.38.75.35,1.18-.06q6.13-5.84,12.3-11.66a3.74,3.74,0,0,1,2.66-1.21,3.1,3.1,0,0,1,3.08,1.82A3.27,3.27,0,0,1,37.7,35.17Z"/><path class="cls-1" d="M6.24,20.18h4.32c1,0,1.36-.36,1.38-1.38A11.72,11.72,0,0,1,28.35,8.23a12,12,0,0,1,7,10.63c.07.95.39,1.3,1.33,1.32H39c.82,0,1.64,0,2.46,0s1.16-.39,1.19-1.19a12.41,12.41,0,0,0-.09-1.61A18.16,18.16,0,0,0,37.45,6,18.51,18.51,0,0,0,21.54.11,17.62,17.62,0,0,0,10.76,5.22a19.83,19.83,0,0,0-6,13.31C4.63,19.65,5.14,20.17,6.24,20.18Z"/></g></g></svg>