<svg xmlns="http://www.w3.org/2000/svg" viewBox="0 0 44.01 52.83"><defs><style>.cls-1{fill:#009fe8;}</style></defs><title>资源 10</title><g id="图层_2" data-name="图层 2"><g id="图层_1-2" data-name="图层 1"><path class="cls-1" d="M22,23H39.4a4.47,4.47,0,0,1,4.52,3.62A4.73,4.73,0,0,1,44,27.72c0,6.79-.05,13.59,0,20.39a4.6,4.6,0,0,1-4.75,4.72H4.84a4.88,4.88,0,0,1-3.09-.94A4.31,4.31,0,0,1,0,48.33V27.61A4.44,4.44,0,0,1,4.59,23Zm-.19,15.34c-1.18-1.17-2.24-2.26-3.34-3.32-.35-.34-.38-.54,0-.87a5.68,5.68,0,0,1,6.32-.54,5.56,5.56,0,0,1-1.45,10.16A5.22,5.22,0,0,1,17.68,42a.49.49,0,0,0-.78-.1c-.84.59-1.68,1.16-2.55,1.7-.43.26-.45.46-.15.86a10,10,0,0,0,11.17,3.22,9.87,9.87,0,0,0,4.85-14.53,9.15,9.15,0,0,0-7.91-4.53,9.47,9.47,0,0,0-6.89,2.48c-.37.33-.59.29-.91-.05-.62-.67-1.28-1.3-1.93-1.94-.09-.09-.15-.26-.38-.18v.43c0,2.77,0,5.54,0,8.3,0,.56.15.74.72.73,2.77,0,5.53,0,8.3,0Z"/><path class="cls-1" d="M36.23,18.76H34.11c-.87,0-1.16-.34-1.23-1.22a11.11,11.11,0,0,0-6.53-9.89A10.9,10.9,0,0,0,11.1,17.48c0,.94-.35,1.27-1.29,1.28h-4c-1,0-1.49-.49-1.42-1.53A18.46,18.46,0,0,1,10,4.85,16.47,16.47,0,0,1,20,.1a17.25,17.25,0,0,1,14.8,5.49,16.93,16.93,0,0,1,4.72,10.56,12.56,12.56,0,0,1,.08,1.5,1,1,0,0,1-1.11,1.1c-.76,0-1.52,0-2.28,0Z"/></g></g></svg>