<svg xmlns="http://www.w3.org/2000/svg" viewBox="0 0 72.8 53"><defs><style>.cls-1{fill:#009fe8;}</style></defs><title>资源 9</title><g id="图层_2" data-name="图层 2"><g id="图层_1-2" data-name="图层 1"><path class="cls-1" d="M46.28,53H20.44c-.58,0-.61,0-.61-.59,0-1.87,0-3.73,0-5.59a1.89,1.89,0,0,1,.27-1A22.83,22.83,0,0,1,25,40.11a27.6,27.6,0,0,1,5.37-3.58,29.65,29.65,0,0,1,6.26-2.33,39,39,0,0,1,8.26-1.15A39.43,39.43,0,0,1,56.09,34.2a27.85,27.85,0,0,1,13.37,7.61A19.12,19.12,0,0,1,72.62,46a1.42,1.42,0,0,1,.17.67c0,2,0,3.9,0,5.86,0,.44-.23.5-.58.5H46.28Z"/><path class="cls-1" d="M46.7,26.53A13.27,13.27,0,1,1,59.56,12.26,13.21,13.21,0,0,1,46.7,26.53Z"/><path class="cls-1" d="M9.89,31.53c0-1.47,0-2.93,0-4.4,0-.42-.12-.56-.55-.56-2.89,0-5.78,0-8.67,0-.67,0-.67,0-.67-.65C0,24,0,22.18,0,20.32c0-.42.14-.53.54-.53,2.92,0,5.84,0,8.76,0,.57,0,.58,0,.59-.6q0-4.29,0-8.58c0-.68,0-.69.68-.69,1.84,0,3.67,0,5.51,0,.44,0,.58.16.58.59,0,2.89,0,5.78,0,8.67,0,.61,0,.62.61.62l8.58,0c.67,0,.69,0,.69.69,0,1.83,0,3.67,0,5.5,0,.46-.17.58-.59.58-2.89,0-5.78,0-8.67,0-.61,0-.62,0-.62.62,0,2.88,0,5.75,0,8.63,0,.64,0,.63-.64.63-1.86,0-3.73,0-5.59,0-.42,0-.56-.1-.55-.54,0-1.46,0-2.93,0-4.4Z"/></g></g></svg>