<svg xmlns="http://www.w3.org/2000/svg" viewBox="0 0 47.35 56.83"><defs><style>.cls-1{fill:#f6ac19;}</style></defs><title>资源 5</title><g id="图层_2" data-name="图层 2"><g id="图层_1-2" data-name="图层 1"><path class="cls-1" d="M47.32,29.82a5.46,5.46,0,0,0-.07-1.14,4.84,4.84,0,0,0-4.86-3.9H23.69q-9.37,0-18.76,0A4.78,4.78,0,0,0,0,29.7V52a4.65,4.65,0,0,0,1.89,3.83,5.16,5.16,0,0,0,3.31,1h37a5,5,0,0,0,5.11-5.08C47.27,44.44,47.32,37.13,47.32,29.82ZM34.05,44.21a4.83,4.83,0,0,1-1.2,0H32.6l-2.55,0-2.93-.05c-.19,0-.19,0-.19.19v6.34A3.28,3.28,0,0,1,24.12,54L24,54H23.3l-.08,0a3.28,3.28,0,0,1-2.82-3.2c0-.31,0-.62,0-.93,0-1,0-2,0-3,0-.84,0-1.67,0-2.51,0-.19,0-.19-.19-.19l-2.87.05-2.72,0a6.86,6.86,0,0,1-1.11,0,3.22,3.22,0,0,1-2.69-2,3.45,3.45,0,0,1-.26-.9v-.79a3.85,3.85,0,0,1,.25-.88,3.21,3.21,0,0,1,2.7-2,3.54,3.54,0,0,1,.46,0h6.23c.2,0,.2,0,.2-.2,0-.87,0-1.74,0-2.61s0-2,0-3a6.32,6.32,0,0,1,0-1.23,3.26,3.26,0,0,1,6.42-.11,3.51,3.51,0,0,1,.07.72c0,2.07,0,4.13,0,6.2,0,.2,0,.2.2.2h6.19a3.27,3.27,0,0,1,2.27.85,3.19,3.19,0,0,1,1,2A3.28,3.28,0,0,1,34.05,44.21Z"/><path class="cls-1" d="M6.24,20.18h4.32c1,0,1.36-.36,1.38-1.38A11.72,11.72,0,0,1,28.35,8.23a12,12,0,0,1,7,10.63c.07.95.39,1.3,1.33,1.32H39c.82,0,1.64,0,2.46,0s1.16-.39,1.19-1.19a12.41,12.41,0,0,0-.09-1.61A18.16,18.16,0,0,0,37.45,6,18.51,18.51,0,0,0,21.54.11,17.62,17.62,0,0,0,10.76,5.22a19.83,19.83,0,0,0-6,13.31C4.63,19.65,5.14,20.17,6.24,20.18Z"/></g></g></svg>