<svg xmlns="http://www.w3.org/2000/svg" viewBox="0 0 41.86 52"><defs><style>.cls-1{fill:#f6ac19;}</style></defs><title>资源 8</title><g id="图层_2" data-name="图层 2"><g id="图层_1-2" data-name="图层 1"><path class="cls-1" d="M37.31,17.19H34.15v-4a13.23,13.23,0,1,0-26.46,0v4H4.51A4.54,4.54,0,0,0,0,21.7V47.45A4.53,4.53,0,0,0,4.51,52h32.8a4.55,4.55,0,0,0,4.55-4.55V21.7A4.55,4.55,0,0,0,37.31,17.19Zm-23.65-4a7.26,7.26,0,0,1,14.51,0v4H13.66Zm9.7,26.85v6.57a.5.5,0,0,1-.52.48H19.69a.48.48,0,0,1-.48-.48V40.08a5.79,5.79,0,1,1,4.15,0Z"/></g></g></svg>