<svg xmlns="http://www.w3.org/2000/svg" viewBox="0 0 42.36 54.78"><defs><style>.cls-1{fill:#fff;}</style></defs><title>资源 8</title><g id="图层_2" data-name="图层 2"><g id="图层_1-2" data-name="图层 1"><path class="cls-1" d="M8.23,54.72a9.15,9.15,0,0,1-8-7.6,10.12,10.12,0,0,1-.11-1.64Q.07,27.42,0,9.38a9.12,9.12,0,0,1,6.73-9A9,9,0,0,1,9.2.11L28.81,0c1.43,0,2.86,0,4.29,0a8.94,8.94,0,0,1,6.74,2.76,8.53,8.53,0,0,1,2.28,5.11,41.19,41.19,0,0,1,.06,5,2.57,2.57,0,0,1-5.13.05c-.06-1.2,0-2.41,0-3.62a4.08,4.08,0,0,0-3.44-4,9.59,9.59,0,0,0-1.42,0l-21.82.09a11,11,0,0,0-1.9.07,3.93,3.93,0,0,0-3.24,4c0,3.42,0,6.85,0,10.28l.12,26a3.93,3.93,0,0,0,3.06,3.9,3.49,3.49,0,0,0,.91.11l23.76-.11a3.93,3.93,0,0,0,4-3.1,4,4,0,0,0,.1-1V38.73a2.59,2.59,0,0,1,5.15-.45,5.12,5.12,0,0,1,0,.56c0,2.18,0,4.37,0,6.56a9.15,9.15,0,0,1-7,9,11.74,11.74,0,0,1-2.78.24l-11.27.06H16l-6.68.05C9,54.78,8.59,54.74,8.23,54.72Z"/><path class="cls-1" d="M10.15,26.25a4.42,4.42,0,0,1,.29-1A3.73,3.73,0,0,1,13.57,23a3.26,3.26,0,0,1,.54,0h7.22c.23,0,.23,0,.23-.23,0-1,0-2,0-3,0-1.15-.05-2.3-.07-3.45a8.43,8.43,0,0,1,0-1.42,3.78,3.78,0,0,1,7.44-.13,4,4,0,0,1,.08.84v7.18c0,.23,0,.23.24.23h7.18a3.76,3.76,0,0,1,2.62,1,3.7,3.7,0,0,1,1.22,2.32,3.78,3.78,0,0,1-3,4.2,5.4,5.4,0,0,1-1.39.06h-.3l-3,0-3.39-.06c-.22,0-.22,0-.22.22v7.35a3.83,3.83,0,0,1-3.27,3.82l-.09,0h-.86l-.09,0A3.81,3.81,0,0,1,21.43,38c0-.36,0-.72,0-1.07,0-1.16,0-2.32.07-3.47,0-1,0-1.94,0-2.91,0-.22,0-.22-.22-.22L18,30.43l-3.15,0a9.26,9.26,0,0,1-1.29,0,3.73,3.73,0,0,1-3.12-2.25,4.34,4.34,0,0,1-.3-1Z"/></g></g></svg>