<svg xmlns="http://www.w3.org/2000/svg" viewBox="0 0 50.14 54.78"><defs><style>.cls-1{fill:#fff;}</style></defs><title>资源 4</title><g id="图层_2" data-name="图层 2"><g id="图层_1-2" data-name="图层 1"><path class="cls-1" d="M8.23,54.72a9.15,9.15,0,0,1-8-7.6,10.12,10.12,0,0,1-.11-1.64Q.07,27.42,0,9.38a9.12,9.12,0,0,1,6.73-9A9,9,0,0,1,9.2.11L28.81,0c1.43,0,2.86,0,4.29,0a8.94,8.94,0,0,1,6.74,2.76,8.53,8.53,0,0,1,2.28,5.11,41.19,41.19,0,0,1,.06,5,2.57,2.57,0,0,1-5.13.05c-.06-1.2,0-2.41,0-3.62a4.08,4.08,0,0,0-3.44-4,9.59,9.59,0,0,0-1.42,0l-21.82.09a11,11,0,0,0-1.9.07,3.93,3.93,0,0,0-3.24,4c0,3.42,0,6.85,0,10.28l.12,26a3.93,3.93,0,0,0,3.06,3.9,3.49,3.49,0,0,0,.91.11l23.76-.11a3.93,3.93,0,0,0,4-3.1,4,4,0,0,0,.1-1V38.73a2.59,2.59,0,0,1,5.15-.45,5.12,5.12,0,0,1,0,.56c0,2.18,0,4.37,0,6.56a9.15,9.15,0,0,1-7,9,11.74,11.74,0,0,1-2.78.24l-11.27.06H16l-6.68.05C9,54.78,8.59,54.74,8.23,54.72Z"/><path class="cls-1" d="M50.11,18.19a2.62,2.62,0,0,1-.9,1.56L34,33.28l-6.29,5.58a2.78,2.78,0,0,1-1.8.77,2.65,2.65,0,0,1-2-.85l-7.85-8c-1.38-1.41-2.77-2.82-4.15-4.24a2.59,2.59,0,1,1,3.66-3.67c1.31,1.32,2.6,2.65,3.9,4q3.13,3.19,6.26,6.38c.2.21.29.21.51,0Q36,24.56,45.74,15.9a2.59,2.59,0,0,1,4.37,1.36A3.62,3.62,0,0,1,50.11,18.19Z"/></g></g></svg>