<svg xmlns="http://www.w3.org/2000/svg" viewBox="0 0 57.75 57.75"><defs><style>.cls-1{fill:#f6ac19;}</style></defs><title>资源 7</title><g id="图层_2" data-name="图层 2"><g id="图层_1-2" data-name="图层 1"><path class="cls-1" d="M57.75,28.88A28.88,28.88,0,1,1,28,0,28.87,28.87,0,0,1,57.75,28.88ZM29,54.57c.56,0,1.27,0,2-.11.5,0,1-.11,1.48-.18a25.5,25.5,0,0,0,13.93-6.65.85.85,0,0,0,.2-1.19A19.44,19.44,0,0,0,41.82,40a18.9,18.9,0,0,0-17.1-4.43,19,19,0,0,0-13.6,10.93.78.78,0,0,0,.19,1.07A25.87,25.87,0,0,0,29,54.57Zm-.16-22.64A10.21,10.21,0,0,0,39.12,21.69a10.24,10.24,0,0,0-20.47-.06A10.22,10.22,0,0,0,28.86,31.93Z"/></g></g></svg>