<svg xmlns="http://www.w3.org/2000/svg" viewBox="0 0 49.87 56.08"><defs><style>.cls-1{fill:#f6ac19;}</style></defs><title>资源 7</title><g id="图层_2" data-name="图层 2"><g id="图层_1-2" data-name="图层 1"><path class="cls-1" d="M49.83,13.16a9.23,9.23,0,0,0-.18-2,4,4,0,0,0-3.26-3c-2.52-.43-5-.92-7.5-1.55A32.4,32.4,0,0,1,28,1.17,7.37,7.37,0,0,0,25.82,0H24a6.86,6.86,0,0,0-2.36,1.44,21,21,0,0,1-6,3.58A50.09,50.09,0,0,1,5.05,8.14c-.63.1-1.27.16-1.9.26a3.56,3.56,0,0,0-3.1,3.45C0,17,0,22.12.1,27.25A29.53,29.53,0,0,0,.75,33.4a30.12,30.12,0,0,0,5.9,11.75,31.88,31.88,0,0,0,10.86,9,16.38,16.38,0,0,0,8.06,1.93,16.54,16.54,0,0,0,6.61-1.83,30.14,30.14,0,0,0,12.44-11.4,34.1,34.1,0,0,0,5-14.33c.1-.85.1-1.71.13-2.57C49.88,21.68,49.9,17.42,49.83,13.16ZM40,21.77c-.71.83-1.5,1.58-2.27,2.36q-7.56,7.65-15.13,15.31c-1.27,1.28-2.13,1.33-3.55.2-2.87-2.26-5.73-4.54-8.61-6.79A3.39,3.39,0,0,1,8.9,30a4,4,0,0,1,4.47-3.68,5.32,5.32,0,0,1,2.55,1c1.11.86,2.25,1.69,3.34,2.58.51.42.84.39,1.32-.07Q27.39,23.43,34.22,17a4.15,4.15,0,0,1,3-1.34,3.43,3.43,0,0,1,3.42,2A3.61,3.61,0,0,1,40,21.77Z"/></g></g></svg>