<svg xmlns="http://www.w3.org/2000/svg" viewBox="0 0 43.72 37.29"><defs><style>.cls-1{fill:#3e3a39;}</style></defs><title>address_home_1</title><g id="图层_2" data-name="图层 2"><g id="图层_1-2" data-name="图层 1"><path class="cls-1" d="M6.47,28.5V20.23c0-.47,0-.47-.48-.47H.35c-.12,0-.3.07-.34-.09s.11-.2.2-.28l6.48-5.84,7.38-6.62,5.52-5c.66-.6,1.34-1.19,2-1.8.2-.19.34-.19.55,0l4.48,4L34.1,10.9l4.79,4.33,4.57,4.11,0,0c.08.1.29.16.22.32s-.24.07-.37.07H37.77c-.51,0-.51,0-.51.51q0,8.2,0,16.42c0,.6,0,.6-.58.6h-10c-.53,0-.54,0-.54-.55V24.67c0-.54,0-.54-.54-.54H18.06c-.5,0-.51,0-.51.5v12c0,.62,0,.62-.61.62H7c-.55,0-.55,0-.55-.56Z"/></g></g></svg>