<svg xmlns="http://www.w3.org/2000/svg" viewBox="0 0 46.13 39.34"><defs><style>.cls-1{fill:#8cc63f;}</style></defs><title>m_confort_home</title><g id="图层_2" data-name="图层 2"><g id="图层_1-2" data-name="图层 1"><path class="cls-1" d="M6.83,30.06V21.35c0-.51,0-.51-.51-.51H.37c-.13,0-.31.07-.36-.1s.12-.21.21-.29l6.84-6.16,7.78-7,5.82-5.25c.71-.64,1.42-1.26,2.12-1.9a.35.35,0,0,1,.57,0q2.36,2.15,4.73,4.27L36,11.5,41,16.07l4.82,4.33,0,0c.09.11.31.17.23.35s-.25.07-.39.07H39.85c-.55,0-.55,0-.55.54V38.7c0,.64,0,.64-.61.64H28.19c-.56,0-.57,0-.57-.58,0-4.24,0-8.49,0-12.73,0-.57,0-.57-.56-.57h-8c-.53,0-.53,0-.53.53V38.68c0,.66,0,.66-.65.66H7.41c-.58,0-.58,0-.58-.6Z"/></g></g></svg>