<svg xmlns="http://www.w3.org/2000/svg" viewBox="0 0 56.08 56.11"><defs><style>.cls-1{fill:#fff;}</style></defs><title>m_fan_show</title><g id="图层_2" data-name="图层 2"><g id="图层_1-2" data-name="图层 1"><path class="cls-1" d="M54,34a4.63,4.63,0,0,1-3.55,1.43,8.39,8.39,0,0,1-.84,0A8.47,8.47,0,0,1,44.09,32c-.15-.17-3.51-4.07-7.54-4.07a6,6,0,0,0-3.15.88c-.14.08-1.41.86-1.34,2,.06.79.66,1.44,1.83,1.95l.07,0c.75.32,9.77,4.38,9.06,13.05a12.22,12.22,0,0,1-.66,2.44,11.81,11.81,0,0,1-1.06,2.1,10.31,10.31,0,0,1-1,1.44A12.56,12.56,0,0,1,39,53c-2.38,2-5.6,3.07-9.63,3.07h-.54c-1.32,0-5.8-.22-7.51-2.92a4.25,4.25,0,0,1-.56-1.37,4.77,4.77,0,0,1-.14-1.44,5.58,5.58,0,0,1,0-.7,5.51,5.51,0,0,1,.19-.94,9,9,0,0,1,3.26-4.63c.26-.23,6.33-5.46,3.18-10.68a2.57,2.57,0,0,0-1.94-1.34c-.81,0-1.48.59-2,1.74a.36.36,0,0,1,0,.09c0,.1-3.8,9.14-12.11,9.14-.32,0-.65,0-1,0S0,41.78,0,29.43c0-.06-.29-4.86,2-7.34A4.61,4.61,0,0,1,5.6,20.66a8.2,8.2,0,0,1,.83,0A8.57,8.57,0,0,1,12,24.15c.14.17,3.49,4.07,7.53,4.07a6,6,0,0,0,3.15-.88,2.53,2.53,0,0,0,1.33-2c-.05-.79-.66-1.44-1.82-2h-.07C21.48,23,12.36,19,13.06,10.27a10.89,10.89,0,0,1,.66-2.45,12.61,12.61,0,0,1,1-2,9.09,9.09,0,0,1,1-1.44,11.89,11.89,0,0,1,1.28-1.28c2.37-2,5.59-3.06,9.6-3.06,0,0,.22,0,.55,0,1.32,0,5.72.22,7.48,2.85a4.2,4.2,0,0,1,.6,1.51,4.47,4.47,0,0,1,.13,1.44,4.5,4.5,0,0,1,0,.63,5.81,5.81,0,0,1-.18.92A9.15,9.15,0,0,1,31.93,12c-.26.23-6.33,5.46-3.19,10.68A2.61,2.61,0,0,0,30.68,24c.82,0,1.5-.59,2-1.75a.32.32,0,0,0,0-.09c0-.09,3.78-9.13,12.11-9.13.31,0,.65,0,1,0s10.26,1.24,10.26,13.59c0,0,.28,4.86-2,7.34"/></g></g></svg>