<svg xmlns="http://www.w3.org/2000/svg" viewBox="0 0 63.03 55.8"><defs><style>.cls-1{fill:#8c99a4;}</style></defs><title>m_fan_auto</title><g id="图层_2" data-name="图层 2"><g id="图层_1-2" data-name="图层 1"><path class="cls-1" d="M26.47,55.8c-8.15,0-15.06-3.36-20.57-10A25.22,25.22,0,0,1,.16,32.06,26.2,26.2,0,0,1,7.08,11,26.12,26.12,0,0,1,20.75,3a21.87,21.87,0,0,1,5.86-.66,25.56,25.56,0,0,1,7.7,1.06l-.87,3.12a22.47,22.47,0,0,0-6.86-.94,19,19,0,0,0-5.09.57,23,23,0,0,0-12,7A23.08,23.08,0,0,0,3.39,31.72a22,22,0,0,0,5,12C13.92,50.39,21,53.3,29.52,52.39a22.63,22.63,0,0,0,15.75-8.85,23.61,23.61,0,0,0,4.42-9.29l3.15.74a26.73,26.73,0,0,1-5,10.56A25.77,25.77,0,0,1,29.87,55.61,30.45,30.45,0,0,1,26.47,55.8Z"/><path class="cls-1" d="M50.36,0h4.15L63,22.29h-3.9l-2-5.59H47.77l-2,5.59h-3.9Zm-1.5,13.7H56l-3.5-9.77h-.12Z"/><path class="cls-1" d="M39.56,31.31a2.3,2.3,0,0,1-1.79.73l-.42,0a4.29,4.29,0,0,1-2.82-1.75c-.07-.08-1.77-2.05-3.81-2.05a3,3,0,0,0-1.59.44c-.07,0-.71.44-.67,1,0,.4.33.73.92,1l0,0c.38.16,4.94,2.21,4.58,6.59a5.52,5.52,0,0,1-.33,1.24,6.26,6.26,0,0,1-.54,1.06,4.73,4.73,0,0,1-.53.72,4.4,4.4,0,0,1-.61.61,7.23,7.23,0,0,1-4.86,1.55h-.28c-.67,0-2.93-.11-3.79-1.47a2.41,2.41,0,0,1-.29-.7,2.38,2.38,0,0,1-.07-.72c0-.12,0-.24,0-.36a3.07,3.07,0,0,1,.1-.47,4.55,4.55,0,0,1,1.65-2.34c.13-.12,3.19-2.77,1.6-5.4a1.27,1.27,0,0,0-1-.68c-.41,0-.75.3-1,.88a.08.08,0,0,1,0,0s-1.92,4.63-6.12,4.63l-.49,0c-.21,0-5.17-.63-5.17-6.88,0,0-.15-2.45,1-3.7a2.34,2.34,0,0,1,1.8-.73l.42,0a4.33,4.33,0,0,1,2.81,1.75c.08.08,1.77,2.05,3.81,2.05a3,3,0,0,0,1.59-.44,1.27,1.27,0,0,0,.67-1c0-.4-.33-.73-.91-1h0c-.33-.14-4.94-2.19-4.58-6.6a5.27,5.27,0,0,1,.34-1.24,6.28,6.28,0,0,1,.5-1,5.34,5.34,0,0,1,.53-.73,7.72,7.72,0,0,1,.64-.64,7.23,7.23,0,0,1,4.86-1.55H26c.67,0,2.89.11,3.78,1.44a2.12,2.12,0,0,1,.3.76,2.48,2.48,0,0,1,.07.73,1.77,1.77,0,0,1,0,.32,2.48,2.48,0,0,1-.09.47,4.55,4.55,0,0,1-1.65,2.34c-.13.12-3.2,2.77-1.61,5.41a1.31,1.31,0,0,0,1,.67c.41,0,.75-.3,1-.89a.08.08,0,0,0,0,0s1.91-4.62,6.12-4.62a4,4,0,0,1,.49,0c.21,0,5.18.62,5.18,6.87,0,0,.14,2.45-1,3.7"/></g></g></svg>