<svg xmlns="http://www.w3.org/2000/svg" viewBox="0 0 61.26 52.33"><defs><style>.cls-1{fill:#8c99a4;}</style></defs><title>m_fan_circle</title><g id="图层_2" data-name="图层 2"><g id="图层_1-2" data-name="图层 1"><path class="cls-1" d="M42.72,28.94a2.13,2.13,0,0,1-1.65.67l-.39,0A4,4,0,0,1,38.09,28a5.39,5.39,0,0,0-3.5-1.89,2.85,2.85,0,0,0-1.47.4c-.06,0-.65.41-.62,1,0,.36.31.66.85.9l0,0c.35.15,4.55,2,4.22,6.07a6.21,6.21,0,0,1-.31,1.13,5.94,5.94,0,0,1-.49,1,5.69,5.69,0,0,1-.49.67,7.4,7.4,0,0,1-.56.56,6.72,6.72,0,0,1-4.48,1.43H31c-.62,0-2.7-.1-3.5-1.36a2.2,2.2,0,0,1-.26-.63,2.43,2.43,0,0,1-.06-.67,1.88,1.88,0,0,1,0-.33,2.37,2.37,0,0,1,.08-.43,4.26,4.26,0,0,1,1.52-2.16c.12-.1,2.95-2.54,1.48-5a1.21,1.21,0,0,0-.9-.62c-.38,0-.69.27-.94.81,0,0,0,0,0,0s-1.77,4.25-5.63,4.25a3.39,3.39,0,0,1-.45,0c-.19,0-4.76-.57-4.76-6.32a5.25,5.25,0,0,1,.94-3.41,2.13,2.13,0,0,1,1.65-.67l.39,0a4,4,0,0,1,2.59,1.61,5.39,5.39,0,0,0,3.5,1.89,2.74,2.74,0,0,0,1.47-.41,1.19,1.19,0,0,0,.62-.95c0-.36-.31-.67-.85-.91h0c-.3-.14-4.54-2-4.22-6.08A5.33,5.33,0,0,1,24,16.75a6.82,6.82,0,0,1,.47-.94,5.27,5.27,0,0,1,.48-.67,5.6,5.6,0,0,1,.6-.59A6.63,6.63,0,0,1,30,13.12h.25c.62,0,2.66.1,3.48,1.32a2.06,2.06,0,0,1,.28.7,2.43,2.43,0,0,1,.06.67c0,.1,0,.2,0,.3a3.44,3.44,0,0,1-.09.42,4.18,4.18,0,0,1-1.52,2.16c-.12.11-2.94,2.55-1.48,5,0,.06.38.62.9.62s.7-.28.94-.82a.08.08,0,0,0,0,0s1.75-4.25,5.63-4.25l.45,0c.19,0,4.77.58,4.77,6.33,0,0,.13,2.26-1,3.41"/><path class="cls-1" d="M30.6,52.31A26.09,26.09,0,0,1,5.33,33.2a23.73,23.73,0,0,1-.82-4.34c0-.45-.23-.57-.64-.58-1.11,0-2.22-.08-3.33-.1-.49,0-.72-.09-.37-.61C2,24.86,3.82,22.15,5.63,19.43c.25-.39.43-.39.67,0Q9,23.68,11.63,27.91c.25.4.09.53-.31.52-1.16,0-2.32-.06-3.47-.12-.51,0-.63.16-.57.63a22.61,22.61,0,0,0,3.8,10.31,22.61,22.61,0,0,0,15.3,10,23.18,23.18,0,0,0,19.07-5,23.13,23.13,0,0,0,4.83-5.33c.09-.13.17-.27.27-.39a1.39,1.39,0,0,1,1.88-.37A1.37,1.37,0,0,1,52.78,40,23.12,23.12,0,0,1,50,43.64a26.23,26.23,0,0,1-16.26,8.49A17,17,0,0,1,30.6,52.31Z"/><path class="cls-1" d="M30.43,0A26,26,0,0,1,55,16.9a24.54,24.54,0,0,1,1.42,5.38c.09.62.34.85,1,.82,1.13-.05,2.27,0,3.41,0,.54,0,.65.16.34.63q-2.7,4.09-5.38,8.21c-.28.43-.46.39-.72,0L49.7,23.73c-.32-.48-.13-.65.37-.65,1,0,2,0,3,0,.53,0,.64-.18.55-.7A23.14,23.14,0,0,0,34.14,3.05c-9.5-1.35-17.23,2.06-23,9.83-.19.26-.34.53-.53.79a1.41,1.41,0,0,1-2,.53,1.37,1.37,0,0,1-.37-2,25,25,0,0,1,4.56-5.39A26.76,26.76,0,0,1,27.22.21,16.41,16.41,0,0,1,30.43,0Z"/></g></g></svg>