<svg xmlns="http://www.w3.org/2000/svg" viewBox="0 0 58.39 47.69"><defs><style>.cls-1{fill:#fff;}</style></defs><title>m_hold_permHold</title><g id="图层_2" data-name="图层 2"><g id="图层_1-2" data-name="图层 1"><path class="cls-1" d="M23.12,34.79a9.65,9.65,0,0,0-2.52-6,1.31,1.31,0,0,1-.4-1q0-9.47,0-18.93A8.61,8.61,0,0,0,13.75.22c-.14,0-.3-.06-.37-.22H9.86c-.12.19-.34.2-.53.25A6.22,6.22,0,0,0,8.05.68,8.55,8.55,0,0,0,3,8.8c0,6.3,0,12.59,0,18.88a1.3,1.3,0,0,1-.36,1A9.66,9.66,0,0,0,0,34.93a11.61,11.61,0,0,0,4,9.94A11.22,11.22,0,0,0,9.9,47.56a10.75,10.75,0,0,0,4.18-.17,11.68,11.68,0,0,0,9-12.6Zm-7,4.21a6.27,6.27,0,0,1-8.61.54,6.46,6.46,0,0,1,.85-10.68A1.11,1.11,0,0,0,9,27.73q0-4.8,0-9.62c0-.92,0-.93.92-.93,1.13,0,2.26,0,3.38,0,.57,0,.79.18.78.77,0,1.66,0,3.32,0,5s0,3.28,0,4.91a1,1,0,0,0,.54,1C18.49,31.08,19.24,35.72,16.15,39Z"/><path class="cls-1" d="M47.47,20.91H29c-.72,0-1,.28-1,1v3.92c0,.67.28,1,1,1H47.38c0,.2-.16.26-.26.36l-4,4c-.55.55-.55.91,0,1.46l2.74,2.74a.85.85,0,0,0,1.39,0L58,24.64A1,1,0,0,0,58,23L47.31,12.39c-.58-.58-.94-.58-1.53,0l-2.71,2.71a.82.82,0,0,0,0,1.38l4,4.05Z"/></g></g></svg>