<svg xmlns="http://www.w3.org/2000/svg" viewBox="0 0 46.81 46.92"><defs><style>.cls-1{fill:#8cc63f;}</style></defs><title>m_hold_schedule</title><g id="图层_2" data-name="图层 2"><g id="图层_1-2" data-name="图层 1"><path class="cls-1" d="M39.7,24.49a11.61,11.61,0,1,0-5.82,22.22c.18,0,.36,0,.45.21H36c.1-.18.28-.19.46-.21A11.58,11.58,0,0,0,46.76,34.27,11.24,11.24,0,0,0,39.7,24.49ZM35.19,43.35a8.17,8.17,0,1,1,8.18-8.19A8.16,8.16,0,0,1,35.19,43.35Z"/><path class="cls-1" d="M22.22,35.62c0-.86,0-.86-.85-.86H5.22c-.82,0-.82,0-.82-.82V16.8c0-.86,0-.87.89-.87H19.38c4.77,0,9.55,0,14.32,0,.56,0,.75.17.74.74,0,1.61,0,3.22,0,4.83,0,.54.18.72.72.71a11.49,11.49,0,0,1,3,.32c.67.15.71.12.71-.56,0-1.89,0-3.77,0-5.66,0-2.49,0-5,0-7.48a2.5,2.5,0,0,0-2.36-2.67H33.06c0-1.29,0-2.59,0-3.89A2.28,2.28,0,0,0,30.79,0a2.31,2.31,0,0,0-2.27,2.3c0,.91,0,1.81,0,2.71V6.14H10.32V5.07h0c0-1,0-1.93,0-2.89A2.29,2.29,0,0,0,8.15,0,2.25,2.25,0,0,0,5.82,1.84,32.36,32.36,0,0,0,5.7,6.13H3c-2.05,0-3,.94-3,3V26.68Q0,31.9,0,37.11a2.4,2.4,0,0,0,2.45,2.54H22.38c.54,0,.57-.18.41-.63A11,11,0,0,1,22.22,35.62Z"/><path class="cls-1" d="M36.44,34.77c-.79,0-.77,0-.74-.8a13.92,13.92,0,0,0,0-3.29,1.65,1.65,0,0,0-1.81-1.35,1.71,1.71,0,0,0-1.55,1.59c-.06,1.82-.1,3.65-.09,5.47a1.71,1.71,0,0,0,1.92,1.83h4v.08c.64,0,1.29,0,1.94,0a1.74,1.74,0,0,0,1.67-1.79A1.71,1.71,0,0,0,40,34.86Z"/><circle class="cls-1" cx="10.06" cy="21.51" r="2.62"/><circle class="cls-1" cx="10.06" cy="29.33" r="2.62"/><circle class="cls-1" cx="18.12" cy="21.51" r="2.62"/><circle class="cls-1" cx="26.18" cy="21.51" r="2.62"/><circle class="cls-1" cx="18.24" cy="29.33" r="2.62"/></g></g></svg>