<svg xmlns="http://www.w3.org/2000/svg" viewBox="0 0 58.46 47.69"><defs><style>.cls-1{fill:#fff;}</style></defs><title>m_hold_tempHold</title><g id="图层_2" data-name="图层 2"><g id="图层_1-2" data-name="图层 1"><path class="cls-1" d="M23.12,34.79a9.65,9.65,0,0,0-2.52-6,1.31,1.31,0,0,1-.4-1q0-9.47,0-18.93A8.61,8.61,0,0,0,13.75.22c-.14,0-.3-.06-.37-.22H9.86c-.12.19-.34.2-.53.25A6.22,6.22,0,0,0,8.05.68,8.55,8.55,0,0,0,3,8.8c0,6.3,0,12.59,0,18.88a1.3,1.3,0,0,1-.36,1A9.66,9.66,0,0,0,0,34.93a11.61,11.61,0,0,0,4,9.94A11.22,11.22,0,0,0,9.9,47.56a10.75,10.75,0,0,0,4.18-.17,11.68,11.68,0,0,0,9-12.6Zm-7,4.21a6.27,6.27,0,0,1-8.61.54,6.46,6.46,0,0,1,.85-10.68A1.11,1.11,0,0,0,9,27.73q0-4.8,0-9.62c0-.92,0-.93.92-.93,1.13,0,2.26,0,3.38,0,.57,0,.79.18.78.77,0,1.66,0,3.32,0,5s0,3.28,0,4.91a1,1,0,0,0,.54,1C18.49,31.08,19.24,35.72,16.15,39Z"/><path class="cls-1" d="M49.23,13.82a15.05,15.05,0,1,0-7.54,28.82c.24,0,.47,0,.59.28h2.14c.13-.24.36-.25.59-.28A15,15,0,0,0,58.39,26.51,14.59,14.59,0,0,0,49.23,13.82ZM43.4,38.29A10.61,10.61,0,0,1,32.82,27.67a10.6,10.6,0,0,1,21.19,0A10.68,10.68,0,0,1,43.4,38.29Z"/><path class="cls-1" d="M45,27.15c-1,0-1,0-.95-1A17.85,17.85,0,0,0,44,21.85a2.12,2.12,0,0,0-2.34-1.74,2.19,2.19,0,0,0-2,2.05c-.08,2.37-.13,4.74-.12,7.1A2.21,2.21,0,0,0,42,31.63c1.73,0,3.46,0,5.19,0v.1c.84,0,1.69.05,2.52,0a2.25,2.25,0,0,0,2.17-2.32,2.22,2.22,0,0,0-2.32-2.14Z"/></g></g></svg>