<svg xmlns="http://www.w3.org/2000/svg" viewBox="0 0 29.86 40.71"><defs><style>.cls-1{fill:none;stroke:#fff;stroke-miterlimit:10;stroke-width:2.33px;}</style></defs><title>m_humi_water</title><g id="图层_2" data-name="图层 2"><g id="图层_1-2" data-name="图层 1"><path class="cls-1" d="M14.62,39.54a7.11,7.11,0,0,1-1.06-.07,7.88,7.88,0,0,1-1.16-.16L11,39c-6-1.56-9.87-6-9.87-11.43,0-4.88,13.76-25.49,13.76-25.49S28.66,23.22,28.69,27.6a11.23,11.23,0,0,1-4.87,9.15A14.78,14.78,0,0,1,18.92,39l-.54.13-1,.21c-.4.06-.78.09-1.32.13a5.68,5.68,0,0,1-.93.05Z"/></g></g></svg>