<svg xmlns="http://www.w3.org/2000/svg" viewBox="0 0 65.97 51.21"><defs><style>.cls-1{fill:#df3f35;}</style></defs><title>m_sys_eHeat</title><g id="图层_2" data-name="图层 2"><g id="图层_1-2" data-name="图层 1"><path class="cls-1" d="M15,0a14.54,14.54,0,0,1,.08,2.74A17.67,17.67,0,0,1,12,11.45a44.42,44.42,0,0,1-4.69,5.6l-.1.1C7.13,17.23.07,24.88,0,33.41v.11A17.78,17.78,0,0,0,18.08,51.21a18.09,18.09,0,0,0,18-18.05v-.49a15.34,15.34,0,0,0-2-6.93,7.47,7.47,0,0,1-7.46,7.44A7.83,7.83,0,0,1,21,30.88a6.78,6.78,0,0,1-1.78-5.16v-.14a8.49,8.49,0,0,1,.67-2.49L20,23C20.27,22.5,26.93,11,15,0Z"/><path class="cls-1" d="M45.28,11.72h20v3.89H49.83v7.7H64.37V27.2H49.83v8.4H66v3.89H45.28Z"/></g></g></svg>