<svg xmlns="http://www.w3.org/2000/svg" viewBox="0 0 38.89 55.14"><defs><style>.cls-1{fill:#df3f35;}</style></defs><title>m_sys_heat</title><g id="图层_2" data-name="图层 2"><g id="图层_1-2" data-name="图层 1"><path class="cls-1" d="M16.13,0a15.07,15.07,0,0,1,.09,3,19.07,19.07,0,0,1-3.3,9.38,47.28,47.28,0,0,1-5,6l-.11.11C7.68,18.56.07,26.79,0,36v.11a19.13,19.13,0,0,0,19.46,19A19.47,19.47,0,0,0,38.89,35.71v-.53a16.43,16.43,0,0,0-2.11-7.46,8,8,0,0,1-8,8,8.43,8.43,0,0,1-6.12-2.48,7.27,7.27,0,0,1-1.92-5.55v-.15a9.13,9.13,0,0,1,.72-2.68l.05-.1C21.83,24.23,29,11.83,16.13,0Z"/></g></g></svg>