<svg xmlns="http://www.w3.org/2000/svg" viewBox="0 0 50.25 57.3"><defs><style>.cls-1{fill:#009fe8;}</style></defs><title>m_sys_cool</title><g id="图层_2" data-name="图层 2"><g id="图层_1-2" data-name="图层 1"><path class="cls-1" d="M49.14,40l-4.71-2.72,4.71-2.72a2.2,2.2,0,1,0-2.2-3.82L40,34.7,29.53,28.65,40,22.59l6.92,4,1.09.29a2.2,2.2,0,0,0,1.11-4.11l-4.71-2.72,4.71-2.72a2.2,2.2,0,1,0-2.2-3.81l-4.72,2.72V10.79a2.21,2.21,0,0,0-4.41,0v8l-10.48,6V12.73l6.91-4A2.2,2.2,0,0,0,32,4.92L27.33,7.64V2.2a2.21,2.21,0,0,0-4.41,0V7.64L18.21,4.92A2.21,2.21,0,1,0,16,8.74l6.92,4v12.1l-10.49-6v-8a2.21,2.21,0,0,0-4.41,0v5.45L3.31,13.52A2.2,2.2,0,0,0,1.1,17.33l4.72,2.72L1.1,22.77a2.2,2.2,0,0,0,1.1,4.11l1.11-.29,6.91-4,10.49,6.06L10.22,34.7l-6.91-4A2.21,2.21,0,0,0,1.1,34.52l4.72,2.72L1.1,40a2.2,2.2,0,0,0,1.1,4.11l1.11-.29L8,41.05V46.5a2.21,2.21,0,0,0,4.41,0v-8l10.49-6v12.1l-6.92,4a2.21,2.21,0,0,0,1.1,4.12l1.11-.3,4.71-2.72v5.44a2.21,2.21,0,1,0,4.41,0V49.65L32,52.37l1.1.3a2.21,2.21,0,0,0,1.11-4.12l-6.92-4V32.46l10.48,6v8a2.21,2.21,0,0,0,4.41,0V41.05l4.72,2.73,1.09.29A2.2,2.2,0,0,0,49.14,40"/></g></g></svg>