<svg xmlns="http://www.w3.org/2000/svg" viewBox="0 0 43.37 47"><defs><style>.cls-1{fill:#fff;}</style></defs><title>m_sys_off</title><g id="图层_2" data-name="图层 2"><g id="图层_1-2" data-name="图层 1"><path class="cls-1" d="M43.37,24.41A21.92,21.92,0,0,1,39,38.35,21.2,21.2,0,0,1,24.1,46.84a20.8,20.8,0,0,1-13.86-3.17,21,21,0,0,1-10-15.4A20.84,20.84,0,0,1,5.29,11.15,18.37,18.37,0,0,1,8.71,8a3.58,3.58,0,0,1,5.13.76,3.68,3.68,0,0,1-.78,5.15A13.87,13.87,0,0,0,7.43,26.33a13.71,13.71,0,0,0,5.76,10.46,13.77,13.77,0,0,0,12.17,2.34A14.16,14.16,0,0,0,35.87,27.32a14,14,0,0,0-2.1-9.72,15.47,15.47,0,0,0-3.59-3.85,3.64,3.64,0,0,1-.57-5.08,3.56,3.56,0,0,1,4.86-.82,20.51,20.51,0,0,1,6.16,6.87A20.52,20.52,0,0,1,43.37,24.41Z"/><path class="cls-1" d="M25.39,12.16v9.23a3.73,3.73,0,0,1-2,3.56A3.65,3.65,0,0,1,18,21.73c0-5.08,0-10.17,0-15.25,0-1,0-1.91,0-2.87A3.75,3.75,0,0,1,21.64,0a3.7,3.7,0,0,1,3.69,3.37C25.49,6.5,25.34,9.64,25.39,12.16Z"/></g></g></svg>