<svg xmlns="http://www.w3.org/2000/svg" viewBox="0 0 74.01 43.58"><defs><style>.cls-1{fill:#009fe8;}.cls-2{fill:#df3f35;}</style></defs><title>m_sys_auto</title><g id="图层_2" data-name="图层 2"><g id="图层_1-2" data-name="图层 1"><path class="cls-1" d="M37.37,30.39l-3.58-2.07,3.58-2.06a1.68,1.68,0,0,0-1.67-2.91l-5.27,3-8-4.6,8-4.61,5.27,3,.83.22A1.69,1.69,0,0,0,38,19.61a1.67,1.67,0,0,0-.62-2.29l-3.58-2.07,3.58-2.07a1.67,1.67,0,1,0-1.67-2.9l-3.59,2.07V8.21a1.68,1.68,0,0,0-3.35,0v6.07l-8,4.6V9.68l5.26-3a1.68,1.68,0,1,0-1.67-2.91L20.78,5.81V1.67a1.68,1.68,0,0,0-3.35,0V5.81L13.85,3.74a1.68,1.68,0,1,0-1.68,2.91l5.26,3v9.2l-8-4.6V8.21a1.68,1.68,0,0,0-3.36,0v4.14L2.52,10.28a1.68,1.68,0,0,0-2.29.61,1.66,1.66,0,0,0,.61,2.29l3.58,2.07L.84,17.32a1.67,1.67,0,0,0,.84,3.12l.84-.22,5.25-3,8,4.61-8,4.6-5.25-3A1.67,1.67,0,0,0,.23,24a1.66,1.66,0,0,0,.61,2.29l3.58,2.06L.84,30.39a1.68,1.68,0,0,0,.84,3.13l.84-.22L6.1,31.22v4.14a1.68,1.68,0,1,0,3.35,0V29.29l8-4.6v9.2l-5.26,3A1.67,1.67,0,0,0,13,40.05l.84-.22,3.58-2.07V41.9a1.68,1.68,0,1,0,3.35,0V37.76l3.59,2.07.83.22a1.67,1.67,0,0,0,.85-3.12l-5.27-3v-9.2l8,4.6v6.07a1.68,1.68,0,1,0,3.35,0V31.22L35.7,33.3l.83.22a1.68,1.68,0,0,0,.84-3.13"/><path class="cls-2" d="M56.7.07a11.8,11.8,0,0,1,.07,2.24,14.61,14.61,0,0,1-2.51,7.14A36.64,36.64,0,0,1,50.42,14l-.09.09c-.06.06-5.84,6.33-5.9,13.31v.09A14.56,14.56,0,0,0,59.24,42,14.81,14.81,0,0,0,74,27.23v-.41a12.57,12.57,0,0,0-1.61-5.67,6.1,6.1,0,0,1-6.1,6.09,6.37,6.37,0,0,1-4.65-1.88,5.53,5.53,0,0,1-1.46-4.22V21a6.78,6.78,0,0,1,.55-2l0-.07C61,18.5,66.49,9.07,56.7.07Z"/></g></g></svg>