<svg xmlns="http://www.w3.org/2000/svg" viewBox="0 0 53.01 53"><defs><style>.cls-1{fill:#ed1c24;}</style></defs><title>warn_black</title><g id="图层_2" data-name="图层 2"><g id="图层_1-2" data-name="图层 1"><path class="cls-1" d="M26.51,0A26.5,26.5,0,1,0,53,26.5,26.55,26.55,0,0,0,26.51,0Zm3,38.88c0,.71-.45,1-1.16,1H24.62a1,1,0,0,1-1.14-1.12c0-1.26,0-2.52,0-3.77a1,1,0,0,1,1.12-1.1h3.77a1,1,0,0,1,1.14,1C29.55,36.27,29.55,37.58,29.51,38.88ZM29.22,26.2c-.24,1.33-.47,2.66-.71,4-.12.67-.36.88-1,.89H25.34a.8.8,0,0,1-.9-.75c-.56-3.34-1.28-6.64-1.69-10a4.75,4.75,0,0,1,0-.65c0-1.9,0-3.79,0-5.68,0-.62.25-.92.81-.92h5.86c.54,0,.8.3.81.87,0,1,0,2.08,0,3.58C30.46,20.18,29.75,23.18,29.22,26.2Z"/></g></g></svg>